<svg version="1.2" xmlns="http://www.w3.org/2000/svg" viewBox="0 0 53 53" width="53" height="53">
	<title>file-svg</title>
	<style>
		.s0 { fill: #4c40f7 } 
		.s1 { fill: #ffffff } 
	</style>
	<g id="Layer">
		<path id="Layer" class="s0" d="m18.5 3h7.7 9.3c8.6 0 15.5 7 15.5 15.6v16.8c0 8.6-6.9 15.6-15.5 15.6h-17c-8.6 0-15.5-7-15.5-15.6v-16.8c0-8.6 6.9-15.6 15.5-15.6z"/>
	</g>
	<path id="Layer" class="s1" d="m35.4 21.6c-1.2-1.9-3-3.3-5.1-4-2-0.8-4.3-0.8-6.4-0.1-2.1 0.7-3.9 2-5.1 3.8-1.3 1.9-1.9 4-1.8 6.2 0.1 2.2 1 4.3 2.4 6 1.4 1.7 3.4 2.8 5.6 3.3 2.1 0.4 4.4 0.2 6.3-0.8 2-0.9 3.6-2.5 4.6-4.5l-5.3-2.7c-0.4 0.8-1.1 1.4-1.9 1.8-0.8 0.4-1.7 0.5-2.5 0.3-0.9-0.2-1.7-0.6-2.2-1.3-0.6-0.7-0.9-1.5-1-2.4 0-0.9 0.2-1.7 0.7-2.5q0.8-1.1 2.1-1.5c0.8-0.3 1.7-0.3 2.5 0 0.9 0.3 1.6 0.9 2.1 1.6z"/>
</svg>